<?xml version="1.0" encoding="UTF-8"?>
<svg id="Layer_1" data-name="Layer 1" xmlns="http://www.w3.org/2000/svg" viewBox="0 0 512 512">
  <defs>
    <style>
      .cls-1, .cls-2 {
        fill: none;
      }

      .cls-2 {
        stroke: #000;
        stroke-miterlimit: 10;
        stroke-width: 5px;
      }
    </style>
  </defs>
  <circle class="cls-2" cx="256" cy="256" r="179.63"/>
  <g>
    <g>
      <path d="M257.34,201.02c-3.13,4.89-1.46,15.38,2.08,20.09,7.47,9.93,32.92,35.02,42.88,43.05,9.78,7.89,18.71,5.75,27.74-1.85,14.76-12.43,42.4-39.78,54.5-54.59,6.3-7.71,8.58-17.42,1.98-25.83-6.53-8.32-37.93-40.16-45.96-45.48-12.55-8.31-23.06,4.49-31.53,12l-3.29-5.26c10.24-13.82,27.76-20.83,42.47-9.1,10.53,8.4,34.52,32.47,42.83,43.05,7.44,9.47,8.09,22.18.31,31.57-21.32,16.97-41.73,47.42-63.23,62.67-11.16,7.92-26.39,2.83-34.91-6.72l-36.3,37.45-13.02.54-1.09,14.21-14.13.91-.22,13.44-14.21,1.09-.99,14.18-14.03,1.17-.22,12.09-13.39,12.49-35.37,1.94,1.94-35.37,107.55-107.61c-21.88-21.52-4.57-39.88,13.69-55.83l7.37,2.27c-5.7,7.69-18.63,15.94-23.43,23.43ZM263.55,234.98c-.74,2.14-1.65,3.59-3.24,5.26-31.1,32.69-68.49,64.05-98.1,97.14-7.99,8.93-4.7,19.12-5.3,30.05,5.19-1.01,22.21,1.59,25.81-.37,11.77-6.42,9.66-15.27,9.58-26.37l15.27-.03.26-13.41,14.09-.94.03-15.27,15.27-.03.91-14.13,15.37-.2,35.87-35.87-25.83-25.83Z"/>
      <path d="M364.95,205.68c-2.45-.11-6.18-2.08-8.14-3.65-7.99-6.38-28.23-26.48-34.26-34.48-9.18-12.18,4.27-25.3,14.17-18.06,6.33,4.63,34.99,32.99,39.17,39.1,4.47,6.54-3.13,17.43-10.95,17.09ZM325.25,160.85l38.26,38.26c1.29,1.29,10.79-1.85,6.28-8.56-4.74-7.05-25.94-27.79-33.06-33.64-7.18-5.89-13.37.35-11.48,3.94Z"/>
      <polygon points="268.34 211.07 272.16 205.33 319.03 252.2 314.25 256.98 268.34 211.07"/>
      <polygon points="290.44 158.46 296.08 152.96 301.81 156.54 294.15 164.19 290.44 158.46"/>
      <path class="cls-1" d="M263.55,234.98l25.83,25.83-35.87,35.87-15.37.2-.91,14.13-15.27.03-.03,15.27-14.09.94-.26,13.41-15.27.03c.08,11.1,2.18,19.95-9.58,26.37-3.6,1.97-20.62-.64-25.81.37.6-10.93-2.7-21.12,5.3-30.05,29.61-33.09,67-64.45,98.1-97.14,1.59-1.67,2.5-3.12,3.24-5.26ZM168.86,344.98l3.83,3.83,94.7-94.7-3.83-3.83-94.7,94.7Z"/>
      <path class="cls-1" d="M325.25,160.85c-1.89-3.59,4.3-9.83,11.48-3.94,7.12,5.84,28.32,26.59,33.06,33.64,4.51,6.71-4.99,9.85-6.28,8.56l-38.26-38.26Z"/>
      <rect x="151.16" y="296.84" width="133.92" height="5.41" transform="translate(-147.93 241.97) rotate(-45)"/>
    </g>
    <path d="M259.46,197.84l62.9-61.35-1.76-.42c-4.24-1.01-8.7.26-11.77,3.34l-51.35,51.46"/>
    <path d="M330.67,269.04l60.68-60.81.34-1.23c-4.03-.8-8.22.88-11.3,3.96l-51.35,51.46"/>
  </g>
  <line class="cls-2" x1="130.53" y1="130.53" x2="381.47" y2="381.47"/>
</svg>