<?xml version="1.0" encoding="UTF-8"?>
<svg id="Layer_1" data-name="Layer 1" xmlns="http://www.w3.org/2000/svg" viewBox="0 0 512 512">
  <defs>
    <style>
      .cls-1 {
        stroke-width: 3px;
      }

      .cls-1, .cls-2 {
        fill: none;
        stroke: #000;
        stroke-miterlimit: 10;
      }

      .cls-2 {
        stroke-width: 5px;
      }
    </style>
  </defs>
  <circle class="cls-1" cx="256" cy="256" r="181.71"/>
  <g>
    <path class="cls-2" d="M326.25,170.25c7.89-.84,13.2,5.29,17.83,10.67,33.1,38.44,36.64,95.3,9.13,137.86-4.04,6.26-14.24,20.29-21.19,22.39-11.46,3.47-21.71-7.46-17.86-18.8,1.43-4.2,6.12-7.84,8.84-11.28,25.77-32.64,26.54-76.79.48-109.59-3.33-4.19-9.05-8.44-9.93-14.01-1.32-8.34,4.15-16.33,12.71-17.24Z"/>
    <path class="cls-2" d="M183.49,170.25c7.74-.39,14.58,5.78,14.95,13.5.42,8.68-4.93,11.38-9.59,17.27-25.77,32.58-26.53,76.89-.48,109.59,2.24,2.81,6.03,5.95,7.86,8.9,8.98,14.47-9.38,31.18-24.18,16.49-38.36-38.08-41.76-102.81-10.92-146.4,4.76-6.73,13.63-18.92,22.35-19.36Z"/>
    <path class="cls-2" d="M218.44,202.33c8.1-.98,16.32,5.71,16.44,13.99.12,8.38-5.61,10.8-9.82,16.56-10.07,13.79-10.12,32.22-.2,46.07,3.09,4.31,7.82,7.05,9.27,12.28,3.83,13.77-11.8,24.05-23,15.32-18.55-14.47-26.1-43.54-20.92-65.87,2.66-11.44,15.27-36.78,28.22-38.35Z"/>
    <path class="cls-2" d="M290.32,202.34c11.78-1.14,23.44,17.33,27.5,26.83,10.77,25.19,5.11,59.6-16.85,77.16-11.53,9.22-27.46-1.54-23.14-15.46,1.54-4.97,5.96-7.53,8.96-11.63,10.05-13.77,10.13-32.2.2-46.07-3.03-4.23-7.82-7.16-9.27-12.28-2.49-8.75,3.5-17.66,12.6-18.54Z"/>
    <path class="cls-2" d="M268.22,243.54c16.42,16.14-8.29,41.07-24.58,25.03-16.4-16.15,8.26-41.07,24.58-25.03Z"/>
  </g>
</svg>