<?xml version="1.0" encoding="UTF-8"?>
<svg id="Layer_1" data-name="Layer 1" xmlns="http://www.w3.org/2000/svg" viewBox="0 0 512 512">
  <defs>
    <style>
      .cls-1, .cls-2, .cls-3 {
        stroke: #000;
        stroke-miterlimit: 10;
      }

      .cls-1, .cls-3 {
        fill: none;
      }

      .cls-3 {
        stroke-width: 3px;
      }
    </style>
  </defs>
  <circle class="cls-3" cx="256" cy="256" r="180.4"/>
  <g>
    <g>
      <path class="cls-2" d="M287.94,359.18h-12.96l-5.28,9.27c-8.02-.85-18.04,1.08-25.77.03-5.35-.73-5.99-7.93-8.01-9.11-2.17-1.27-10.81,1.17-12.37-1.06l-.42-25.49-8.16-7.57-.3-14.51c-57.25-37.18-46.89-124.87,21.43-140.84,87.64-20.5,135.16,90.83,60.64,140.23l-.62,15.12-8.18,6.63v27.3ZM218.32,307.55c.84,9.28-2.8,16.19,7.56,20.68l58.63.22,7.89-6,.64-15.09c35.58-23.33,49.41-69.3,23.05-105.44-30.89-42.35-98.78-39.38-125.15,6.12-21.07,36.34-5.92,77.6,27.38,99.51ZM283.31,333.27h-55.53v21.29l10.18.47c1.53.92,3.6,6.6,5.1,7.86,2.76,2.31,19.27.35,23.88.76l6.38-8.89,10-.19v-21.29Z"/>
      <path class="cls-1" d="M283.31,333.27v21.29l-10,.19-6.38,8.89c-4.61-.41-21.13,1.55-23.88-.76-1.5-1.26-3.57-6.94-5.1-7.86l-10.18-.47v-21.29h55.53Z"/>
    </g>
    <line class="cls-3" x1="168.95" y1="329.58" x2="187.56" y2="310.97"/>
    <line class="cls-3" x1="158.49" y1="242.21" x2="136.82" y2="242.21"/>
    <line class="cls-3" x1="188.96" y1="175.95" x2="169.01" y2="156"/>
    <line class="cls-3" x1="255.6" y1="148.31" x2="255.6" y2="119.21"/>
    <line class="cls-3" x1="320.44" y1="177.31" x2="342.26" y2="155.48"/>
    <line class="cls-3" x1="349.53" y1="242.25" x2="378.39" y2="242.25"/>
    <line class="cls-3" x1="324.21" y1="307.21" x2="343.64" y2="326.65"/>
    <path class="cls-3" d="M244.53,377.78v5.08c0,.95,1.16,1.72,2.59,1.72h17.68c1.43,0,2.59-.77,2.59-1.72v-5.08c0-.95-1.16-1.72-2.59-1.72h-17.68c-1.43,0-2.59.77-2.59,1.72Z"/>
  </g>
</svg>